<mxfile host="app.diagrams.net" agent="Mozilla/5.0 (Windows NT 10.0; Win64; x64) AppleWebKit/537.36 (KHTML, like Gecko) Chrome/131.0.0.0 Safari/537.36" version="26.0.4">
  <diagram name="Main" id="-8RwsYh5zjc8CAchAIcD">
    <mxGraphModel grid="1" page="1" gridSize="10" guides="1" tooltips="1" connect="1" arrows="1" fold="1" pageScale="1" pageWidth="1920" pageHeight="1200" background="#FFFFFF" math="0" shadow="0">
      <root>
        <mxCell id="0" />
        <mxCell id="1" parent="0" />
        <mxCell id="MHnDylHfhtY8Gi0aV5KS-23" value="" style="rounded=1;whiteSpace=wrap;html=1;fontSize=14;fillColor=#f5f5f5;fontColor=#333333;strokeColor=#666666;fontFamily=Comic Sans MS;" vertex="1" parent="1">
          <mxGeometry x="80" y="80" width="170" height="140" as="geometry" />
        </mxCell>
        <mxCell id="IY8Bk3Zj8GRvutV6p5dz-18" style="edgeStyle=orthogonalEdgeStyle;rounded=0;orthogonalLoop=1;jettySize=auto;html=1;entryX=0.5;entryY=0;entryDx=0;entryDy=0;endArrow=ERzeroToMany;endFill=0;fontFamily=Comic Sans MS;" edge="1" parent="1" source="IY8Bk3Zj8GRvutV6p5dz-38" target="qOecveLr7XMx1ubsBaYV-7">
          <mxGeometry relative="1" as="geometry" />
        </mxCell>
        <mxCell id="_CsvcWrSVV_CphR7rF0--6" value="Tenants" style="swimlane;fontStyle=0;childLayout=stackLayout;horizontal=1;startSize=30;horizontalStack=0;resizeParent=1;resizeParentMax=0;resizeLast=0;collapsible=1;marginBottom=0;whiteSpace=wrap;html=1;fontSize=13;fillColor=#dae8fc;strokeColor=#6c8ebf;fontFamily=Comic Sans MS;" vertex="1" parent="1">
          <mxGeometry x="890" y="240" width="140" height="90" as="geometry" />
        </mxCell>
        <mxCell id="_CsvcWrSVV_CphR7rF0--7" value="&lt;b&gt;Tenant_ID&lt;/b&gt;" style="text;strokeColor=none;fillColor=none;align=left;verticalAlign=middle;spacingLeft=4;spacingRight=4;overflow=hidden;points=[[0,0.5],[1,0.5]];portConstraint=eastwest;rotatable=0;whiteSpace=wrap;html=1;fontSize=13;fontFamily=Comic Sans MS;" vertex="1" parent="_CsvcWrSVV_CphR7rF0--6">
          <mxGeometry y="30" width="140" height="30" as="geometry" />
        </mxCell>
        <mxCell id="_CsvcWrSVV_CphR7rF0--8" value="Tenant_Name" style="text;strokeColor=none;fillColor=none;align=left;verticalAlign=middle;spacingLeft=4;spacingRight=4;overflow=hidden;points=[[0,0.5],[1,0.5]];portConstraint=eastwest;rotatable=0;whiteSpace=wrap;html=1;fontSize=13;fontFamily=Comic Sans MS;" vertex="1" parent="_CsvcWrSVV_CphR7rF0--6">
          <mxGeometry y="60" width="140" height="30" as="geometry" />
        </mxCell>
        <mxCell id="_CsvcWrSVV_CphR7rF0--21" value="Employee&amp;nbsp;" style="swimlane;fontStyle=0;childLayout=stackLayout;horizontal=1;startSize=30;horizontalStack=0;resizeParent=1;resizeParentMax=0;resizeLast=0;collapsible=1;marginBottom=0;whiteSpace=wrap;html=1;fontSize=13;fillColor=#d5e8d4;strokeColor=#82b366;fontFamily=Comic Sans MS;" vertex="1" parent="1">
          <mxGeometry x="680" y="710" width="140" height="150" as="geometry" />
        </mxCell>
        <mxCell id="_CsvcWrSVV_CphR7rF0--22" value="&lt;b&gt;Employee_ID&lt;/b&gt;" style="text;strokeColor=none;fillColor=none;align=left;verticalAlign=middle;spacingLeft=4;spacingRight=4;overflow=hidden;points=[[0,0.5],[1,0.5]];portConstraint=eastwest;rotatable=0;whiteSpace=wrap;html=1;fontSize=13;fontFamily=Comic Sans MS;" vertex="1" parent="_CsvcWrSVV_CphR7rF0--21">
          <mxGeometry y="30" width="140" height="30" as="geometry" />
        </mxCell>
        <mxCell id="IY8Bk3Zj8GRvutV6p5dz-10" value="&lt;b&gt;&lt;font style=&quot;color: light-dark(rgb(105, 105, 105), rgb(237, 237, 237));&quot;&gt;SubTenant_ID&lt;/font&gt;&lt;/b&gt;" style="text;strokeColor=none;fillColor=none;spacingLeft=4;spacingRight=4;overflow=hidden;rotatable=0;points=[[0,0.5],[1,0.5]];portConstraint=eastwest;fontSize=12;whiteSpace=wrap;html=1;fontFamily=Comic Sans MS;" vertex="1" parent="_CsvcWrSVV_CphR7rF0--21">
          <mxGeometry y="60" width="140" height="30" as="geometry" />
        </mxCell>
        <mxCell id="_CsvcWrSVV_CphR7rF0--23" value="Employee_Name" style="text;strokeColor=none;fillColor=none;align=left;verticalAlign=middle;spacingLeft=4;spacingRight=4;overflow=hidden;points=[[0,0.5],[1,0.5]];portConstraint=eastwest;rotatable=0;whiteSpace=wrap;html=1;fontSize=13;fontFamily=Comic Sans MS;" vertex="1" parent="_CsvcWrSVV_CphR7rF0--21">
          <mxGeometry y="90" width="140" height="30" as="geometry" />
        </mxCell>
        <mxCell id="IY8Bk3Zj8GRvutV6p5dz-9" value="Gender" style="text;strokeColor=none;fillColor=none;spacingLeft=4;spacingRight=4;overflow=hidden;rotatable=0;points=[[0,0.5],[1,0.5]];portConstraint=eastwest;fontSize=12;whiteSpace=wrap;html=1;fontFamily=Comic Sans MS;" vertex="1" parent="_CsvcWrSVV_CphR7rF0--21">
          <mxGeometry y="120" width="140" height="30" as="geometry" />
        </mxCell>
        <mxCell id="IY8Bk3Zj8GRvutV6p5dz-49" style="edgeStyle=orthogonalEdgeStyle;rounded=0;orthogonalLoop=1;jettySize=auto;html=1;entryX=0.5;entryY=0;entryDx=0;entryDy=0;endArrow=ERzeroToMany;endFill=0;fontFamily=Comic Sans MS;" edge="1" parent="1" source="_CsvcWrSVV_CphR7rF0--24" target="qOecveLr7XMx1ubsBaYV-92">
          <mxGeometry relative="1" as="geometry" />
        </mxCell>
        <mxCell id="_CsvcWrSVV_CphR7rF0--24" value="Patients" style="swimlane;fontStyle=0;childLayout=stackLayout;horizontal=1;startSize=30;horizontalStack=0;resizeParent=1;resizeParentMax=0;resizeLast=0;collapsible=1;marginBottom=0;whiteSpace=wrap;html=1;fontSize=13;fillColor=#f8cecc;strokeColor=#b85450;fontFamily=Comic Sans MS;" vertex="1" parent="1">
          <mxGeometry x="415" y="220" width="140" height="90" as="geometry" />
        </mxCell>
        <mxCell id="_CsvcWrSVV_CphR7rF0--25" value="&lt;b&gt;Patient_ID&lt;/b&gt;" style="text;strokeColor=none;fillColor=none;align=left;verticalAlign=middle;spacingLeft=4;spacingRight=4;overflow=hidden;points=[[0,0.5],[1,0.5]];portConstraint=eastwest;rotatable=0;whiteSpace=wrap;html=1;fontSize=13;fontFamily=Comic Sans MS;" vertex="1" parent="_CsvcWrSVV_CphR7rF0--24">
          <mxGeometry y="30" width="140" height="30" as="geometry" />
        </mxCell>
        <mxCell id="_CsvcWrSVV_CphR7rF0--26" value="Patient_Name" style="text;strokeColor=none;fillColor=none;align=left;verticalAlign=middle;spacingLeft=4;spacingRight=4;overflow=hidden;points=[[0,0.5],[1,0.5]];portConstraint=eastwest;rotatable=0;whiteSpace=wrap;html=1;fontSize=13;fontFamily=Comic Sans MS;" vertex="1" parent="_CsvcWrSVV_CphR7rF0--24">
          <mxGeometry y="60" width="140" height="30" as="geometry" />
        </mxCell>
        <mxCell id="qOecveLr7XMx1ubsBaYV-1" value="Services" style="swimlane;fontStyle=0;childLayout=stackLayout;horizontal=1;startSize=30;horizontalStack=0;resizeParent=1;resizeParentMax=0;resizeLast=0;collapsible=1;marginBottom=0;whiteSpace=wrap;html=1;fontSize=13;fillColor=#d5e8d4;strokeColor=#82b366;fontFamily=Comic Sans MS;" vertex="1" parent="1">
          <mxGeometry x="1110" y="710" width="140" height="150" as="geometry" />
        </mxCell>
        <mxCell id="qOecveLr7XMx1ubsBaYV-2" value="&lt;b&gt;Service_ID&lt;/b&gt;" style="text;strokeColor=none;fillColor=none;align=left;verticalAlign=middle;spacingLeft=4;spacingRight=4;overflow=hidden;points=[[0,0.5],[1,0.5]];portConstraint=eastwest;rotatable=0;whiteSpace=wrap;html=1;fontSize=13;fontFamily=Comic Sans MS;" vertex="1" parent="qOecveLr7XMx1ubsBaYV-1">
          <mxGeometry y="30" width="140" height="30" as="geometry" />
        </mxCell>
        <mxCell id="qOecveLr7XMx1ubsBaYV-5" value="&lt;b&gt;&lt;font style=&quot;color: rgb(105, 105, 105);&quot;&gt;SubTenant_ID&lt;/font&gt;&lt;/b&gt;" style="text;strokeColor=none;fillColor=none;align=left;verticalAlign=middle;spacingLeft=4;spacingRight=4;overflow=hidden;points=[[0,0.5],[1,0.5]];portConstraint=eastwest;rotatable=0;whiteSpace=wrap;html=1;fontSize=13;fontFamily=Comic Sans MS;" vertex="1" parent="qOecveLr7XMx1ubsBaYV-1">
          <mxGeometry y="60" width="140" height="30" as="geometry" />
        </mxCell>
        <mxCell id="qOecveLr7XMx1ubsBaYV-3" value="Service_Name" style="text;strokeColor=none;fillColor=none;align=left;verticalAlign=middle;spacingLeft=4;spacingRight=4;overflow=hidden;points=[[0,0.5],[1,0.5]];portConstraint=eastwest;rotatable=0;whiteSpace=wrap;html=1;fontSize=13;fontFamily=Comic Sans MS;" vertex="1" parent="qOecveLr7XMx1ubsBaYV-1">
          <mxGeometry y="90" width="140" height="30" as="geometry" />
        </mxCell>
        <mxCell id="qOecveLr7XMx1ubsBaYV-6" value="Service_Price" style="text;strokeColor=none;fillColor=none;align=left;verticalAlign=middle;spacingLeft=4;spacingRight=4;overflow=hidden;points=[[0,0.5],[1,0.5]];portConstraint=eastwest;rotatable=0;whiteSpace=wrap;html=1;fontSize=13;fontFamily=Comic Sans MS;" vertex="1" parent="qOecveLr7XMx1ubsBaYV-1">
          <mxGeometry y="120" width="140" height="30" as="geometry" />
        </mxCell>
        <mxCell id="qOecveLr7XMx1ubsBaYV-7" value="SubTenant" style="swimlane;fontStyle=0;childLayout=stackLayout;horizontal=1;startSize=30;horizontalStack=0;resizeParent=1;resizeParentMax=0;resizeLast=0;collapsible=1;marginBottom=0;whiteSpace=wrap;html=1;fontSize=13;fillColor=#d5e8d4;strokeColor=#82b366;fontFamily=Comic Sans MS;" vertex="1" parent="1">
          <mxGeometry x="890" y="490" width="140" height="120" as="geometry" />
        </mxCell>
        <mxCell id="qOecveLr7XMx1ubsBaYV-8" value="&lt;b&gt;SubTenant_ID&lt;/b&gt;" style="text;strokeColor=none;fillColor=none;align=left;verticalAlign=middle;spacingLeft=4;spacingRight=4;overflow=hidden;points=[[0,0.5],[1,0.5]];portConstraint=eastwest;rotatable=0;whiteSpace=wrap;html=1;fontSize=13;fontFamily=Comic Sans MS;" vertex="1" parent="qOecveLr7XMx1ubsBaYV-7">
          <mxGeometry y="30" width="140" height="30" as="geometry" />
        </mxCell>
        <mxCell id="qOecveLr7XMx1ubsBaYV-10" value="&lt;b&gt;&lt;font style=&quot;color: rgb(105, 105, 105);&quot;&gt;TenantID&lt;/font&gt;&lt;/b&gt;" style="text;strokeColor=none;fillColor=none;align=left;verticalAlign=middle;spacingLeft=4;spacingRight=4;overflow=hidden;points=[[0,0.5],[1,0.5]];portConstraint=eastwest;rotatable=0;whiteSpace=wrap;html=1;fontSize=13;fontFamily=Comic Sans MS;" vertex="1" parent="qOecveLr7XMx1ubsBaYV-7">
          <mxGeometry y="60" width="140" height="30" as="geometry" />
        </mxCell>
        <mxCell id="qOecveLr7XMx1ubsBaYV-87" value="Branch" style="text;strokeColor=none;fillColor=none;align=left;verticalAlign=middle;spacingLeft=4;spacingRight=4;overflow=hidden;points=[[0,0.5],[1,0.5]];portConstraint=eastwest;rotatable=0;whiteSpace=wrap;html=1;fontSize=13;fontFamily=Comic Sans MS;" vertex="1" parent="qOecveLr7XMx1ubsBaYV-7">
          <mxGeometry y="90" width="140" height="30" as="geometry" />
        </mxCell>
        <mxCell id="qOecveLr7XMx1ubsBaYV-88" value="EmployeeServices&amp;nbsp;" style="swimlane;fontStyle=0;childLayout=stackLayout;horizontal=1;startSize=30;horizontalStack=0;resizeParent=1;resizeParentMax=0;resizeLast=0;collapsible=1;marginBottom=0;whiteSpace=wrap;html=1;fontSize=13;fillColor=#d5e8d4;strokeColor=#82b366;fontFamily=Comic Sans MS;" vertex="1" parent="1">
          <mxGeometry x="890" y="940" width="140" height="120" as="geometry" />
        </mxCell>
        <mxCell id="qOecveLr7XMx1ubsBaYV-90" value="&lt;b&gt;&lt;font style=&quot;color: rgb(0, 0, 153);&quot;&gt;EmployeeService_ID&lt;/font&gt;&lt;/b&gt;" style="text;strokeColor=none;fillColor=none;align=left;verticalAlign=middle;spacingLeft=4;spacingRight=4;overflow=hidden;points=[[0,0.5],[1,0.5]];portConstraint=eastwest;rotatable=0;whiteSpace=wrap;html=1;fontSize=13;fontFamily=Comic Sans MS;" vertex="1" parent="qOecveLr7XMx1ubsBaYV-88">
          <mxGeometry y="30" width="140" height="30" as="geometry" />
        </mxCell>
        <mxCell id="qOecveLr7XMx1ubsBaYV-89" value="&lt;font style=&quot;color: rgb(105, 105, 105);&quot;&gt;EmployeeID&lt;/font&gt;" style="text;strokeColor=none;fillColor=none;align=left;verticalAlign=middle;spacingLeft=4;spacingRight=4;overflow=hidden;points=[[0,0.5],[1,0.5]];portConstraint=eastwest;rotatable=0;whiteSpace=wrap;html=1;fontSize=13;fontStyle=1;fontFamily=Comic Sans MS;" vertex="1" parent="qOecveLr7XMx1ubsBaYV-88">
          <mxGeometry y="60" width="140" height="30" as="geometry" />
        </mxCell>
        <mxCell id="qOecveLr7XMx1ubsBaYV-91" value="&lt;b&gt;&lt;font style=&quot;color: rgb(105, 105, 105);&quot;&gt;ServiceID&lt;/font&gt;&lt;/b&gt;" style="text;strokeColor=none;fillColor=none;align=left;verticalAlign=middle;spacingLeft=4;spacingRight=4;overflow=hidden;points=[[0,0.5],[1,0.5]];portConstraint=eastwest;rotatable=0;whiteSpace=wrap;html=1;fontSize=13;fontFamily=Comic Sans MS;" vertex="1" parent="qOecveLr7XMx1ubsBaYV-88">
          <mxGeometry y="90" width="140" height="30" as="geometry" />
        </mxCell>
        <mxCell id="qOecveLr7XMx1ubsBaYV-92" value="Appointment" style="swimlane;fontStyle=0;childLayout=stackLayout;horizontal=1;startSize=30;horizontalStack=0;resizeParent=1;resizeParentMax=0;resizeLast=0;collapsible=1;marginBottom=0;whiteSpace=wrap;html=1;fontSize=13;fillColor=#f8cecc;strokeColor=#b85450;fontFamily=Comic Sans MS;" vertex="1" parent="1">
          <mxGeometry x="400" y="415" width="170" height="150" as="geometry" />
        </mxCell>
        <mxCell id="qOecveLr7XMx1ubsBaYV-93" value="&lt;b&gt;Appointment_ID&lt;/b&gt;" style="text;strokeColor=none;fillColor=none;align=left;verticalAlign=middle;spacingLeft=4;spacingRight=4;overflow=hidden;points=[[0,0.5],[1,0.5]];portConstraint=eastwest;rotatable=0;whiteSpace=wrap;html=1;fontSize=13;fontFamily=Comic Sans MS;" vertex="1" parent="qOecveLr7XMx1ubsBaYV-92">
          <mxGeometry y="30" width="170" height="30" as="geometry" />
        </mxCell>
        <mxCell id="qOecveLr7XMx1ubsBaYV-94" value="&lt;b&gt;&lt;font style=&quot;color: rgb(105, 105, 105);&quot;&gt;Patient_ID&lt;/font&gt;&lt;/b&gt;" style="text;strokeColor=none;fillColor=none;align=left;verticalAlign=middle;spacingLeft=4;spacingRight=4;overflow=hidden;points=[[0,0.5],[1,0.5]];portConstraint=eastwest;rotatable=0;whiteSpace=wrap;html=1;fontSize=13;fontFamily=Comic Sans MS;" vertex="1" parent="qOecveLr7XMx1ubsBaYV-92">
          <mxGeometry y="60" width="170" height="30" as="geometry" />
        </mxCell>
        <mxCell id="qOecveLr7XMx1ubsBaYV-98" value="&lt;b&gt;&lt;font style=&quot;color: rgb(105, 105, 105);&quot;&gt;EmployeeService_ID&lt;/font&gt;&lt;/b&gt;" style="text;strokeColor=none;fillColor=none;align=left;verticalAlign=middle;spacingLeft=4;spacingRight=4;overflow=hidden;points=[[0,0.5],[1,0.5]];portConstraint=eastwest;rotatable=0;whiteSpace=wrap;html=1;fontSize=13;fontFamily=Comic Sans MS;" vertex="1" parent="qOecveLr7XMx1ubsBaYV-92">
          <mxGeometry y="90" width="170" height="30" as="geometry" />
        </mxCell>
        <mxCell id="qOecveLr7XMx1ubsBaYV-99" value="Appointment_TimeStamp" style="text;strokeColor=none;fillColor=none;align=left;verticalAlign=middle;spacingLeft=4;spacingRight=4;overflow=hidden;points=[[0,0.5],[1,0.5]];portConstraint=eastwest;rotatable=0;whiteSpace=wrap;html=1;fontSize=13;fontFamily=Comic Sans MS;" vertex="1" parent="qOecveLr7XMx1ubsBaYV-92">
          <mxGeometry y="120" width="170" height="30" as="geometry" />
        </mxCell>
        <mxCell id="IY8Bk3Zj8GRvutV6p5dz-29" style="edgeStyle=orthogonalEdgeStyle;rounded=0;orthogonalLoop=1;jettySize=auto;html=1;entryX=1;entryY=0.5;entryDx=0;entryDy=0;fontFamily=Comic Sans MS;" edge="1" parent="1" source="MHnDylHfhtY8Gi0aV5KS-1" target="IY8Bk3Zj8GRvutV6p5dz-14">
          <mxGeometry relative="1" as="geometry" />
        </mxCell>
        <mxCell id="MHnDylHfhtY8Gi0aV5KS-1" value="Product" style="swimlane;fontStyle=0;childLayout=stackLayout;horizontal=1;startSize=30;horizontalStack=0;resizeParent=1;resizeParentMax=0;resizeLast=0;collapsible=1;marginBottom=0;whiteSpace=wrap;html=1;fontSize=13;fillColor=#e1d5e7;strokeColor=#9673a6;fontFamily=Comic Sans MS;" vertex="1" parent="1">
          <mxGeometry x="1610" y="550" width="140" height="150" as="geometry" />
        </mxCell>
        <mxCell id="MHnDylHfhtY8Gi0aV5KS-2" value="&lt;b&gt;Product_ID&lt;/b&gt;" style="text;strokeColor=none;fillColor=none;align=left;verticalAlign=middle;spacingLeft=4;spacingRight=4;overflow=hidden;points=[[0,0.5],[1,0.5]];portConstraint=eastwest;rotatable=0;whiteSpace=wrap;html=1;fontSize=13;fontFamily=Comic Sans MS;" vertex="1" parent="MHnDylHfhtY8Gi0aV5KS-1">
          <mxGeometry y="30" width="140" height="30" as="geometry" />
        </mxCell>
        <mxCell id="MHnDylHfhtY8Gi0aV5KS-3" value="Product_Name" style="text;strokeColor=none;fillColor=none;align=left;verticalAlign=middle;spacingLeft=4;spacingRight=4;overflow=hidden;points=[[0,0.5],[1,0.5]];portConstraint=eastwest;rotatable=0;whiteSpace=wrap;html=1;fontSize=13;fontFamily=Comic Sans MS;" vertex="1" parent="MHnDylHfhtY8Gi0aV5KS-1">
          <mxGeometry y="60" width="140" height="30" as="geometry" />
        </mxCell>
        <mxCell id="MHnDylHfhtY8Gi0aV5KS-4" value="Description" style="text;strokeColor=none;fillColor=none;align=left;verticalAlign=middle;spacingLeft=4;spacingRight=4;overflow=hidden;points=[[0,0.5],[1,0.5]];portConstraint=eastwest;rotatable=0;whiteSpace=wrap;html=1;fontSize=13;fontFamily=Comic Sans MS;" vertex="1" parent="MHnDylHfhtY8Gi0aV5KS-1">
          <mxGeometry y="90" width="140" height="30" as="geometry" />
        </mxCell>
        <mxCell id="MHnDylHfhtY8Gi0aV5KS-5" value="Price" style="text;strokeColor=none;fillColor=none;align=left;verticalAlign=middle;spacingLeft=4;spacingRight=4;overflow=hidden;points=[[0,0.5],[1,0.5]];portConstraint=eastwest;rotatable=0;whiteSpace=wrap;html=1;fontSize=13;fontFamily=Comic Sans MS;" vertex="1" parent="MHnDylHfhtY8Gi0aV5KS-1">
          <mxGeometry y="120" width="140" height="30" as="geometry" />
        </mxCell>
        <mxCell id="lcoInHSSsRBtbDeqLOkY-1" value="ServiceRecord" style="swimlane;fontStyle=0;childLayout=stackLayout;horizontal=1;startSize=30;horizontalStack=0;resizeParent=1;resizeParentMax=0;resizeLast=0;collapsible=1;marginBottom=0;whiteSpace=wrap;html=1;fontSize=13;fillColor=#fff2cc;strokeColor=#d6b656;fontFamily=Comic Sans MS;" vertex="1" parent="1">
          <mxGeometry x="90" y="670" width="160" height="180" as="geometry" />
        </mxCell>
        <mxCell id="lcoInHSSsRBtbDeqLOkY-2" value="&lt;b&gt;Service_Record_ID&lt;/b&gt;" style="text;strokeColor=none;fillColor=none;align=left;verticalAlign=middle;spacingLeft=4;spacingRight=4;overflow=hidden;points=[[0,0.5],[1,0.5]];portConstraint=eastwest;rotatable=0;whiteSpace=wrap;html=1;fontSize=13;fontFamily=Comic Sans MS;" vertex="1" parent="lcoInHSSsRBtbDeqLOkY-1">
          <mxGeometry y="30" width="160" height="30" as="geometry" />
        </mxCell>
        <mxCell id="lcoInHSSsRBtbDeqLOkY-3" value="&lt;font style=&quot;color: rgb(105, 105, 105);&quot;&gt;&lt;b&gt;EmployeeServiceID&lt;/b&gt;&lt;/font&gt;" style="text;strokeColor=none;fillColor=none;align=left;verticalAlign=middle;spacingLeft=4;spacingRight=4;overflow=hidden;points=[[0,0.5],[1,0.5]];portConstraint=eastwest;rotatable=0;whiteSpace=wrap;html=1;fontSize=13;fontFamily=Comic Sans MS;" vertex="1" parent="lcoInHSSsRBtbDeqLOkY-1">
          <mxGeometry y="60" width="160" height="30" as="geometry" />
        </mxCell>
        <mxCell id="lcoInHSSsRBtbDeqLOkY-5" value="&lt;b&gt;&lt;font style=&quot;color: rgb(105, 105, 105);&quot;&gt;Sales_ID&lt;/font&gt;&lt;/b&gt;" style="text;strokeColor=none;fillColor=none;align=left;verticalAlign=middle;spacingLeft=4;spacingRight=4;overflow=hidden;points=[[0,0.5],[1,0.5]];portConstraint=eastwest;rotatable=0;whiteSpace=wrap;html=1;fontSize=13;fontFamily=Comic Sans MS;" vertex="1" parent="lcoInHSSsRBtbDeqLOkY-1">
          <mxGeometry y="90" width="160" height="30" as="geometry" />
        </mxCell>
        <mxCell id="lcoInHSSsRBtbDeqLOkY-4" value="Timestamp" style="text;strokeColor=none;fillColor=none;align=left;verticalAlign=middle;spacingLeft=4;spacingRight=4;overflow=hidden;points=[[0,0.5],[1,0.5]];portConstraint=eastwest;rotatable=0;whiteSpace=wrap;html=1;fontSize=13;fontFamily=Comic Sans MS;" vertex="1" parent="lcoInHSSsRBtbDeqLOkY-1">
          <mxGeometry y="120" width="160" height="30" as="geometry" />
        </mxCell>
        <mxCell id="IY8Bk3Zj8GRvutV6p5dz-58" value="Amount" style="text;strokeColor=none;fillColor=none;align=left;verticalAlign=middle;spacingLeft=4;spacingRight=4;overflow=hidden;points=[[0,0.5],[1,0.5]];portConstraint=eastwest;rotatable=0;whiteSpace=wrap;html=1;fontSize=13;fontFamily=Comic Sans MS;" vertex="1" parent="lcoInHSSsRBtbDeqLOkY-1">
          <mxGeometry y="150" width="160" height="30" as="geometry" />
        </mxCell>
        <mxCell id="lcoInHSSsRBtbDeqLOkY-6" value="SalesRecord" style="swimlane;fontStyle=0;childLayout=stackLayout;horizontal=1;startSize=30;horizontalStack=0;resizeParent=1;resizeParentMax=0;resizeLast=0;collapsible=1;marginBottom=0;whiteSpace=wrap;html=1;fontSize=13;fillColor=#fff2cc;strokeColor=#d6b656;fontFamily=Comic Sans MS;" vertex="1" parent="1">
          <mxGeometry x="220" y="910" width="160" height="150" as="geometry" />
        </mxCell>
        <mxCell id="lcoInHSSsRBtbDeqLOkY-7" value="&lt;b&gt;Sales_ID&lt;/b&gt;" style="text;strokeColor=none;fillColor=none;align=left;verticalAlign=middle;spacingLeft=4;spacingRight=4;overflow=hidden;points=[[0,0.5],[1,0.5]];portConstraint=eastwest;rotatable=0;whiteSpace=wrap;html=1;fontSize=13;fontFamily=Comic Sans MS;" vertex="1" parent="lcoInHSSsRBtbDeqLOkY-6">
          <mxGeometry y="30" width="160" height="30" as="geometry" />
        </mxCell>
        <mxCell id="lcoInHSSsRBtbDeqLOkY-8" value="&lt;b&gt;&lt;font style=&quot;color: rgb(105, 105, 105);&quot;&gt;Patient_ID&lt;/font&gt;&lt;/b&gt;" style="text;strokeColor=none;fillColor=none;align=left;verticalAlign=middle;spacingLeft=4;spacingRight=4;overflow=hidden;points=[[0,0.5],[1,0.5]];portConstraint=eastwest;rotatable=0;whiteSpace=wrap;html=1;fontSize=13;fontFamily=Comic Sans MS;" vertex="1" parent="lcoInHSSsRBtbDeqLOkY-6">
          <mxGeometry y="60" width="160" height="30" as="geometry" />
        </mxCell>
        <mxCell id="lcoInHSSsRBtbDeqLOkY-9" value="Timestamp" style="text;strokeColor=none;fillColor=none;align=left;verticalAlign=middle;spacingLeft=4;spacingRight=4;overflow=hidden;points=[[0,0.5],[1,0.5]];portConstraint=eastwest;rotatable=0;whiteSpace=wrap;html=1;fontSize=13;fontFamily=Comic Sans MS;" vertex="1" parent="lcoInHSSsRBtbDeqLOkY-6">
          <mxGeometry y="90" width="160" height="30" as="geometry" />
        </mxCell>
        <mxCell id="lcoInHSSsRBtbDeqLOkY-10" value="TotalAmount" style="text;strokeColor=none;fillColor=none;align=left;verticalAlign=middle;spacingLeft=4;spacingRight=4;overflow=hidden;points=[[0,0.5],[1,0.5]];portConstraint=eastwest;rotatable=0;whiteSpace=wrap;html=1;fontSize=13;fontFamily=Comic Sans MS;" vertex="1" parent="lcoInHSSsRBtbDeqLOkY-6">
          <mxGeometry y="120" width="160" height="30" as="geometry" />
        </mxCell>
        <mxCell id="lcoInHSSsRBtbDeqLOkY-11" value="Inventory" style="swimlane;fontStyle=0;childLayout=stackLayout;horizontal=1;startSize=30;horizontalStack=0;resizeParent=1;resizeParentMax=0;resizeLast=0;collapsible=1;marginBottom=0;whiteSpace=wrap;html=1;fontSize=13;fillColor=#d5e8d4;strokeColor=#82b366;fontFamily=Comic Sans MS;" vertex="1" parent="1">
          <mxGeometry x="1310" y="300" width="160" height="180" as="geometry" />
        </mxCell>
        <mxCell id="lcoInHSSsRBtbDeqLOkY-12" value="&lt;b&gt;Inventory_ID&lt;/b&gt;" style="text;strokeColor=none;fillColor=none;align=left;verticalAlign=middle;spacingLeft=4;spacingRight=4;overflow=hidden;points=[[0,0.5],[1,0.5]];portConstraint=eastwest;rotatable=0;whiteSpace=wrap;html=1;fontSize=13;fontFamily=Comic Sans MS;" vertex="1" parent="lcoInHSSsRBtbDeqLOkY-11">
          <mxGeometry y="30" width="160" height="30" as="geometry" />
        </mxCell>
        <mxCell id="lcoInHSSsRBtbDeqLOkY-13" value="&lt;b&gt;&lt;font style=&quot;color: rgb(105, 105, 105);&quot;&gt;SubTenant_ID&lt;/font&gt;&lt;/b&gt;" style="text;strokeColor=none;fillColor=none;align=left;verticalAlign=middle;spacingLeft=4;spacingRight=4;overflow=hidden;points=[[0,0.5],[1,0.5]];portConstraint=eastwest;rotatable=0;whiteSpace=wrap;html=1;fontSize=13;fontFamily=Comic Sans MS;" vertex="1" parent="lcoInHSSsRBtbDeqLOkY-11">
          <mxGeometry y="60" width="160" height="30" as="geometry" />
        </mxCell>
        <mxCell id="lcoInHSSsRBtbDeqLOkY-14" value="&lt;b&gt;&lt;font style=&quot;color: rgb(105, 105, 105);&quot;&gt;Product_ID&lt;/font&gt;&lt;/b&gt;" style="text;strokeColor=none;fillColor=none;align=left;verticalAlign=middle;spacingLeft=4;spacingRight=4;overflow=hidden;points=[[0,0.5],[1,0.5]];portConstraint=eastwest;rotatable=0;whiteSpace=wrap;html=1;fontSize=13;fontFamily=Comic Sans MS;" vertex="1" parent="lcoInHSSsRBtbDeqLOkY-11">
          <mxGeometry y="90" width="160" height="30" as="geometry" />
        </mxCell>
        <mxCell id="IY8Bk3Zj8GRvutV6p5dz-11" value="&lt;b&gt;Supplier_ID&lt;/b&gt;" style="text;strokeColor=none;fillColor=none;spacingLeft=4;spacingRight=4;overflow=hidden;rotatable=0;points=[[0,0.5],[1,0.5]];portConstraint=eastwest;fontSize=12;whiteSpace=wrap;html=1;fontColor=light-dark(#696969, #ededed);fontFamily=Comic Sans MS;" vertex="1" parent="lcoInHSSsRBtbDeqLOkY-11">
          <mxGeometry y="120" width="160" height="30" as="geometry" />
        </mxCell>
        <mxCell id="lcoInHSSsRBtbDeqLOkY-15" value="Quantity" style="text;strokeColor=none;fillColor=none;align=left;verticalAlign=middle;spacingLeft=4;spacingRight=4;overflow=hidden;points=[[0,0.5],[1,0.5]];portConstraint=eastwest;rotatable=0;whiteSpace=wrap;html=1;fontSize=13;fontFamily=Comic Sans MS;" vertex="1" parent="lcoInHSSsRBtbDeqLOkY-11">
          <mxGeometry y="150" width="160" height="30" as="geometry" />
        </mxCell>
        <mxCell id="IY8Bk3Zj8GRvutV6p5dz-28" style="edgeStyle=orthogonalEdgeStyle;rounded=0;orthogonalLoop=1;jettySize=auto;html=1;entryX=0;entryY=0.5;entryDx=0;entryDy=0;fontFamily=Comic Sans MS;" edge="1" parent="1" source="MHnDylHfhtY8Gi0aV5KS-6" target="IY8Bk3Zj8GRvutV6p5dz-14">
          <mxGeometry relative="1" as="geometry" />
        </mxCell>
        <mxCell id="MHnDylHfhtY8Gi0aV5KS-6" value="Suppliers" style="swimlane;fontStyle=0;childLayout=stackLayout;horizontal=1;startSize=30;horizontalStack=0;resizeParent=1;resizeParentMax=0;resizeLast=0;collapsible=1;marginBottom=0;whiteSpace=wrap;html=1;fontSize=13;fillColor=#e1d5e7;strokeColor=#9673a6;fontFamily=Comic Sans MS;" vertex="1" parent="1">
          <mxGeometry x="1430" y="550" width="140" height="90" as="geometry" />
        </mxCell>
        <mxCell id="MHnDylHfhtY8Gi0aV5KS-7" value="&lt;b&gt;Supplier_ID&lt;/b&gt;" style="text;strokeColor=none;fillColor=none;align=left;verticalAlign=middle;spacingLeft=4;spacingRight=4;overflow=hidden;points=[[0,0.5],[1,0.5]];portConstraint=eastwest;rotatable=0;whiteSpace=wrap;html=1;fontSize=13;fontFamily=Comic Sans MS;" vertex="1" parent="MHnDylHfhtY8Gi0aV5KS-6">
          <mxGeometry y="30" width="140" height="30" as="geometry" />
        </mxCell>
        <mxCell id="MHnDylHfhtY8Gi0aV5KS-10" value="Supplier_Name" style="text;strokeColor=none;fillColor=none;align=left;verticalAlign=middle;spacingLeft=4;spacingRight=4;overflow=hidden;points=[[0,0.5],[1,0.5]];portConstraint=eastwest;rotatable=0;whiteSpace=wrap;html=1;fontSize=13;fontFamily=Comic Sans MS;" vertex="1" parent="MHnDylHfhtY8Gi0aV5KS-6">
          <mxGeometry y="60" width="140" height="30" as="geometry" />
        </mxCell>
        <mxCell id="MHnDylHfhtY8Gi0aV5KS-11" value="ProductRecord" style="swimlane;fontStyle=0;childLayout=stackLayout;horizontal=1;startSize=30;horizontalStack=0;resizeParent=1;resizeParentMax=0;resizeLast=0;collapsible=1;marginBottom=0;whiteSpace=wrap;html=1;fontSize=13;fillColor=#fff2cc;strokeColor=#d6b656;fontFamily=Comic Sans MS;" vertex="1" parent="1">
          <mxGeometry x="380" y="670" width="160" height="180" as="geometry" />
        </mxCell>
        <mxCell id="MHnDylHfhtY8Gi0aV5KS-12" value="&lt;b&gt;Product_Record_ID&lt;/b&gt;" style="text;strokeColor=none;fillColor=none;align=left;verticalAlign=middle;spacingLeft=4;spacingRight=4;overflow=hidden;points=[[0,0.5],[1,0.5]];portConstraint=eastwest;rotatable=0;whiteSpace=wrap;html=1;fontSize=13;fontFamily=Comic Sans MS;" vertex="1" parent="MHnDylHfhtY8Gi0aV5KS-11">
          <mxGeometry y="30" width="160" height="30" as="geometry" />
        </mxCell>
        <mxCell id="MHnDylHfhtY8Gi0aV5KS-15" value="&lt;b&gt;&lt;font style=&quot;color: rgb(105, 105, 105);&quot;&gt;Sales_ID&lt;/font&gt;&lt;/b&gt;" style="text;strokeColor=none;fillColor=none;align=left;verticalAlign=middle;spacingLeft=4;spacingRight=4;overflow=hidden;points=[[0,0.5],[1,0.5]];portConstraint=eastwest;rotatable=0;whiteSpace=wrap;html=1;fontSize=13;fontFamily=Comic Sans MS;" vertex="1" parent="MHnDylHfhtY8Gi0aV5KS-11">
          <mxGeometry y="60" width="160" height="30" as="geometry" />
        </mxCell>
        <mxCell id="MHnDylHfhtY8Gi0aV5KS-13" value="&lt;b&gt;&lt;font style=&quot;color: rgb(105, 105, 105);&quot;&gt;Product_ID&lt;/font&gt;&lt;/b&gt;" style="text;strokeColor=none;fillColor=none;align=left;verticalAlign=middle;spacingLeft=4;spacingRight=4;overflow=hidden;points=[[0,0.5],[1,0.5]];portConstraint=eastwest;rotatable=0;whiteSpace=wrap;html=1;fontSize=13;fontFamily=Comic Sans MS;" vertex="1" parent="MHnDylHfhtY8Gi0aV5KS-11">
          <mxGeometry y="90" width="160" height="30" as="geometry" />
        </mxCell>
        <mxCell id="MHnDylHfhtY8Gi0aV5KS-14" value="Quantity" style="text;strokeColor=none;fillColor=none;align=left;verticalAlign=middle;spacingLeft=4;spacingRight=4;overflow=hidden;points=[[0,0.5],[1,0.5]];portConstraint=eastwest;rotatable=0;whiteSpace=wrap;html=1;fontSize=13;fontFamily=Comic Sans MS;" vertex="1" parent="MHnDylHfhtY8Gi0aV5KS-11">
          <mxGeometry y="120" width="160" height="30" as="geometry" />
        </mxCell>
        <mxCell id="MHnDylHfhtY8Gi0aV5KS-16" value="Price" style="text;strokeColor=none;fillColor=none;align=left;verticalAlign=middle;spacingLeft=4;spacingRight=4;overflow=hidden;points=[[0,0.5],[1,0.5]];portConstraint=eastwest;rotatable=0;whiteSpace=wrap;html=1;fontSize=13;fontFamily=Comic Sans MS;" vertex="1" parent="MHnDylHfhtY8Gi0aV5KS-11">
          <mxGeometry y="150" width="160" height="30" as="geometry" />
        </mxCell>
        <mxCell id="MHnDylHfhtY8Gi0aV5KS-17" value="" style="rounded=0;whiteSpace=wrap;html=1;fillColor=#696969;fontColor=#333333;strokeColor=#666666;fontFamily=Comic Sans MS;" vertex="1" parent="1">
          <mxGeometry x="100" y="112.5" width="30" height="20" as="geometry" />
        </mxCell>
        <mxCell id="MHnDylHfhtY8Gi0aV5KS-18" value="Foreign Key" style="text;html=1;align=center;verticalAlign=middle;resizable=0;points=[];autosize=1;strokeColor=none;fillColor=none;fontFamily=Comic Sans MS;" vertex="1" parent="1">
          <mxGeometry x="130" y="107.5" width="90" height="30" as="geometry" />
        </mxCell>
        <mxCell id="MHnDylHfhtY8Gi0aV5KS-19" value="" style="rounded=0;whiteSpace=wrap;html=1;fillColor=#000099;fontColor=#333333;strokeColor=#666666;fontFamily=Comic Sans MS;" vertex="1" parent="1">
          <mxGeometry x="100" y="142.5" width="30" height="20" as="geometry" />
        </mxCell>
        <mxCell id="MHnDylHfhtY8Gi0aV5KS-20" value="Composite Key" style="text;html=1;align=center;verticalAlign=middle;resizable=0;points=[];autosize=1;strokeColor=none;fillColor=none;fontFamily=Comic Sans MS;" vertex="1" parent="1">
          <mxGeometry x="133" y="137.5" width="100" height="30" as="geometry" />
        </mxCell>
        <mxCell id="MHnDylHfhtY8Gi0aV5KS-21" value="" style="rounded=0;whiteSpace=wrap;html=1;fillColor=#000000;fontColor=#333333;strokeColor=#666666;fontFamily=Comic Sans MS;" vertex="1" parent="1">
          <mxGeometry x="101" y="174.5" width="30" height="20" as="geometry" />
        </mxCell>
        <mxCell id="MHnDylHfhtY8Gi0aV5KS-22" value="Primary Key" style="text;html=1;align=center;verticalAlign=middle;resizable=0;points=[];autosize=1;strokeColor=none;fillColor=none;fontFamily=Comic Sans MS;" vertex="1" parent="1">
          <mxGeometry x="136" y="169.5" width="90" height="30" as="geometry" />
        </mxCell>
        <mxCell id="IY8Bk3Zj8GRvutV6p5dz-12" value="Supplier Products" style="swimlane;fontStyle=0;childLayout=stackLayout;horizontal=1;startSize=30;horizontalStack=0;resizeParent=1;resizeParentMax=0;resizeLast=0;collapsible=1;marginBottom=0;whiteSpace=wrap;html=1;fontSize=13;fillColor=#e1d5e7;strokeColor=#9673a6;fontFamily=Comic Sans MS;" vertex="1" parent="1">
          <mxGeometry x="1520" y="830" width="140" height="120" as="geometry" />
        </mxCell>
        <mxCell id="IY8Bk3Zj8GRvutV6p5dz-13" value="&lt;b&gt;&lt;font style=&quot;&quot;&gt;Supplier_Product_ID&lt;/font&gt;&lt;/b&gt;" style="text;strokeColor=none;fillColor=none;align=left;verticalAlign=middle;spacingLeft=4;spacingRight=4;overflow=hidden;points=[[0,0.5],[1,0.5]];portConstraint=eastwest;rotatable=0;whiteSpace=wrap;html=1;fontSize=13;fontColor=default;fontFamily=Comic Sans MS;" vertex="1" parent="IY8Bk3Zj8GRvutV6p5dz-12">
          <mxGeometry y="30" width="140" height="30" as="geometry" />
        </mxCell>
        <mxCell id="IY8Bk3Zj8GRvutV6p5dz-14" value="&lt;font style=&quot;color: rgb(105, 105, 105);&quot;&gt;Supplier_ID&lt;/font&gt;" style="text;strokeColor=none;fillColor=none;align=left;verticalAlign=middle;spacingLeft=4;spacingRight=4;overflow=hidden;points=[[0,0.5],[1,0.5]];portConstraint=eastwest;rotatable=0;whiteSpace=wrap;html=1;fontSize=13;fontStyle=1;fontFamily=Comic Sans MS;" vertex="1" parent="IY8Bk3Zj8GRvutV6p5dz-12">
          <mxGeometry y="60" width="140" height="30" as="geometry" />
        </mxCell>
        <mxCell id="IY8Bk3Zj8GRvutV6p5dz-16" value="&lt;font style=&quot;color: rgb(105, 105, 105);&quot;&gt;Product_ID&lt;/font&gt;" style="text;strokeColor=none;fillColor=none;align=left;verticalAlign=middle;spacingLeft=4;spacingRight=4;overflow=hidden;points=[[0,0.5],[1,0.5]];portConstraint=eastwest;rotatable=0;whiteSpace=wrap;html=1;fontSize=13;fontStyle=1;fontFamily=Comic Sans MS;" vertex="1" parent="IY8Bk3Zj8GRvutV6p5dz-12">
          <mxGeometry y="90" width="140" height="30" as="geometry" />
        </mxCell>
        <mxCell id="IY8Bk3Zj8GRvutV6p5dz-23" style="edgeStyle=orthogonalEdgeStyle;rounded=0;orthogonalLoop=1;jettySize=auto;html=1;entryX=-0.015;entryY=-0.044;entryDx=0;entryDy=0;entryPerimeter=0;fontFamily=Comic Sans MS;" edge="1" parent="1" source="_CsvcWrSVV_CphR7rF0--21" target="qOecveLr7XMx1ubsBaYV-89">
          <mxGeometry relative="1" as="geometry" />
        </mxCell>
        <mxCell id="IY8Bk3Zj8GRvutV6p5dz-25" style="edgeStyle=orthogonalEdgeStyle;rounded=0;orthogonalLoop=1;jettySize=auto;html=1;entryX=1.017;entryY=0.273;entryDx=0;entryDy=0;entryPerimeter=0;fontFamily=Comic Sans MS;" edge="1" parent="1" source="qOecveLr7XMx1ubsBaYV-1" target="qOecveLr7XMx1ubsBaYV-89">
          <mxGeometry relative="1" as="geometry" />
        </mxCell>
        <mxCell id="IY8Bk3Zj8GRvutV6p5dz-26" style="edgeStyle=orthogonalEdgeStyle;rounded=0;orthogonalLoop=1;jettySize=auto;html=1;entryX=0.012;entryY=0.103;entryDx=0;entryDy=0;entryPerimeter=0;fontFamily=Comic Sans MS;" edge="1" parent="1" source="lcoInHSSsRBtbDeqLOkY-1" target="lcoInHSSsRBtbDeqLOkY-9">
          <mxGeometry relative="1" as="geometry" />
        </mxCell>
        <mxCell id="IY8Bk3Zj8GRvutV6p5dz-33" style="edgeStyle=orthogonalEdgeStyle;rounded=0;orthogonalLoop=1;jettySize=auto;html=1;entryX=0.5;entryY=0;entryDx=0;entryDy=0;endArrow=ERmany;endFill=0;fontFamily=Comic Sans MS;" edge="1" parent="1" source="qOecveLr7XMx1ubsBaYV-10" target="_CsvcWrSVV_CphR7rF0--21">
          <mxGeometry relative="1" as="geometry" />
        </mxCell>
        <mxCell id="IY8Bk3Zj8GRvutV6p5dz-34" style="edgeStyle=orthogonalEdgeStyle;rounded=0;orthogonalLoop=1;jettySize=auto;html=1;endArrow=ERzeroToMany;endFill=0;fontFamily=Comic Sans MS;" edge="1" parent="1" source="qOecveLr7XMx1ubsBaYV-10" target="qOecveLr7XMx1ubsBaYV-1">
          <mxGeometry relative="1" as="geometry" />
        </mxCell>
        <mxCell id="IY8Bk3Zj8GRvutV6p5dz-37" style="edgeStyle=orthogonalEdgeStyle;rounded=0;orthogonalLoop=1;jettySize=auto;html=1;fontFamily=Comic Sans MS;" edge="1" parent="1" source="qOecveLr7XMx1ubsBaYV-8" target="lcoInHSSsRBtbDeqLOkY-13">
          <mxGeometry relative="1" as="geometry">
            <Array as="points">
              <mxPoint x="1170" y="520" />
              <mxPoint x="1170" y="375" />
            </Array>
          </mxGeometry>
        </mxCell>
        <mxCell id="IY8Bk3Zj8GRvutV6p5dz-39" value="" style="edgeStyle=orthogonalEdgeStyle;rounded=0;orthogonalLoop=1;jettySize=auto;html=1;entryX=0.5;entryY=0;entryDx=0;entryDy=0;endArrow=ERzeroToMany;endFill=0;fontFamily=Comic Sans MS;" edge="1" parent="1" source="_CsvcWrSVV_CphR7rF0--6" target="IY8Bk3Zj8GRvutV6p5dz-38">
          <mxGeometry relative="1" as="geometry">
            <mxPoint x="960" y="340" as="sourcePoint" />
            <mxPoint x="960" y="440" as="targetPoint" />
          </mxGeometry>
        </mxCell>
        <mxCell id="IY8Bk3Zj8GRvutV6p5dz-38" value="&lt;b&gt;&lt;font style=&quot;color: rgb(255, 0, 0); font-size: 10px;&quot;&gt;Tenant to&amp;nbsp;&lt;/font&gt;&lt;/b&gt;&lt;div&gt;&lt;b&gt;&lt;font style=&quot;color: rgb(255, 0, 0); font-size: 10px;&quot;&gt;1/M Sub-Tenant&lt;/font&gt;&lt;/b&gt;&lt;/div&gt;" style="shape=rhombus;perimeter=rhombusPerimeter;whiteSpace=wrap;html=1;align=center;fontSize=8;fontFamily=Comic Sans MS;" vertex="1" parent="1">
          <mxGeometry x="885" y="380" width="150" height="50" as="geometry" />
        </mxCell>
        <mxCell id="IY8Bk3Zj8GRvutV6p5dz-40" value="&lt;font style=&quot;font-size: 10px; color: rgb(255, 0, 0);&quot;&gt;&lt;b&gt;Sub-Tenant to&amp;nbsp;&lt;/b&gt;&lt;/font&gt;&lt;div&gt;&lt;font style=&quot;font-size: 10px; color: rgb(255, 0, 0);&quot;&gt;&lt;b&gt;Employee&lt;/b&gt;&lt;/font&gt;&lt;/div&gt;" style="shape=rhombus;perimeter=rhombusPerimeter;whiteSpace=wrap;html=1;align=center;fontFamily=Comic Sans MS;" vertex="1" parent="1">
          <mxGeometry x="690" y="540" width="120" height="60" as="geometry" />
        </mxCell>
        <mxCell id="IY8Bk3Zj8GRvutV6p5dz-41" value="&lt;b&gt;&lt;font style=&quot;color: rgb(255, 0, 0);&quot;&gt;Sub-Tenant to&amp;nbsp;&lt;/font&gt;&lt;/b&gt;&lt;div&gt;&lt;b&gt;&lt;font style=&quot;color: rgb(255, 0, 0);&quot;&gt;1/M Services&lt;/font&gt;&lt;/b&gt;&lt;/div&gt;" style="shape=rhombus;perimeter=rhombusPerimeter;whiteSpace=wrap;html=1;align=center;fontSize=12;fontFamily=Comic Sans MS;" vertex="1" parent="1">
          <mxGeometry x="1110" y="540" width="140" height="60" as="geometry" />
        </mxCell>
        <mxCell id="IY8Bk3Zj8GRvutV6p5dz-42" value="&lt;b&gt;&lt;font style=&quot;color: rgb(255, 0, 0); font-size: 10px;&quot;&gt;&lt;font style=&quot;&quot;&gt;Every Sub-Tenant&amp;nbsp;&lt;/font&gt;&lt;span style=&quot;background-color: transparent;&quot;&gt;will&lt;/span&gt;&lt;/font&gt;&lt;/b&gt;&lt;div&gt;&lt;span style=&quot;background-color: transparent;&quot;&gt;&lt;b style=&quot;&quot;&gt;&lt;font style=&quot;color: rgb(255, 0, 0); font-size: 10px;&quot;&gt;be having a Inventory&lt;/font&gt;&lt;/b&gt;&lt;/span&gt;&lt;/div&gt;" style="shape=rhombus;perimeter=rhombusPerimeter;whiteSpace=wrap;html=1;align=center;fontFamily=Comic Sans MS;" vertex="1" parent="1">
          <mxGeometry x="1100" y="340" width="150" height="70" as="geometry" />
        </mxCell>
        <mxCell id="IY8Bk3Zj8GRvutV6p5dz-45" value="Employee-Service Mapping" style="text;html=1;align=center;verticalAlign=middle;whiteSpace=wrap;rounded=0;fontStyle=1;fontFamily=Comic Sans MS;" vertex="1" parent="1">
          <mxGeometry x="875" y="910" width="170" height="30" as="geometry" />
        </mxCell>
        <mxCell id="IY8Bk3Zj8GRvutV6p5dz-46" value="Supplier-Product Mapping" style="text;html=1;align=center;verticalAlign=middle;whiteSpace=wrap;rounded=0;fontStyle=1;fontFamily=Comic Sans MS;" vertex="1" parent="1">
          <mxGeometry x="1505" y="800" width="170" height="30" as="geometry" />
        </mxCell>
        <mxCell id="IY8Bk3Zj8GRvutV6p5dz-48" style="edgeStyle=orthogonalEdgeStyle;rounded=0;orthogonalLoop=1;jettySize=auto;html=1;entryX=0.994;entryY=0.042;entryDx=0;entryDy=0;entryPerimeter=0;fontFamily=Comic Sans MS;" edge="1" parent="1" source="MHnDylHfhtY8Gi0aV5KS-11" target="lcoInHSSsRBtbDeqLOkY-9">
          <mxGeometry relative="1" as="geometry" />
        </mxCell>
        <mxCell id="IY8Bk3Zj8GRvutV6p5dz-56" value="&lt;font face=&quot;Comic Sans MS&quot;&gt;DML Assignment&lt;/font&gt;" style="text;strokeColor=none;fillColor=none;html=1;fontSize=32;fontStyle=1;verticalAlign=middle;align=center;" vertex="1" parent="1">
          <mxGeometry x="815" y="122.5" width="290" height="40" as="geometry" />
        </mxCell>
      </root>
    </mxGraphModel>
  </diagram>
</mxfile>
